<svg width="24" height="24" viewBox="0 0 24 24" fill="none" xmlns="http://www.w3.org/2000/svg">
<g id="arrowup">
<path id="Vector" d="M10.2685 11.9965L16.993 18.4612C17.1781 18.6387 17.28 18.8762 17.28 19.1293C17.28 19.3826 17.1781 19.6199 16.993 19.7978L16.4037 20.3639C16.2189 20.5421 15.9717 20.6401 15.7084 20.6401C15.4451 20.6401 15.1982 20.5421 15.0132 20.3639L7.0067 12.6672C6.82095 12.4888 6.71924 12.2503 6.71997 11.9969C6.71924 11.7423 6.82081 11.5042 7.0067 11.3257L15.0058 3.63633C15.1908 3.45819 15.4376 3.36013 15.7011 3.36013C15.9644 3.36013 16.2113 3.45819 16.3964 3.63633L16.9855 4.2025C17.3688 4.571 17.3688 5.17088 16.9855 5.53924L10.2685 11.9965Z" fill="#808080"/>
</g>
</svg>
