<svg width="24" height="24" viewBox="0 0 24 24" fill="none" xmlns="http://www.w3.org/2000/svg">
<g id="arrowdown">
<path id="Vector" d="M13.7315 12.0035L7.00705 5.53883C6.82189 5.36125 6.72003 5.12383 6.72003 4.87067C6.72003 4.61737 6.82189 4.38009 7.00705 4.20223L7.59628 3.63606C7.78114 3.45793 8.02827 3.35987 8.29161 3.35987C8.55495 3.35987 8.80178 3.45793 8.98679 3.63606L16.9933 11.3328C17.179 11.5112 17.2808 11.7497 17.28 12.0031C17.2808 12.2577 17.1792 12.4958 16.9933 12.6743L8.99425 20.3637C8.80923 20.5418 8.56241 20.6399 8.29892 20.6399C8.03558 20.6399 7.78875 20.5418 7.60359 20.3637L7.0145 19.7975C6.63118 19.429 6.63118 18.8291 7.0145 18.4608L13.7315 12.0035Z" fill="#3E66DF"/>
</g>
</svg>
