<svg width="230" height="230" viewBox="0 0 230 230" fill="none" xmlns="http://www.w3.org/2000/svg">
<g id="Qotes">
<path id="left-quote 1 (Traced)" fill-rule="evenodd" clip-rule="evenodd" d="M150.761 203.836C156.665 201.592 165.88 196.661 172.548 192.179C180.526 186.816 191.487 176.588 196.945 169.413C206.75 156.526 211.879 143.418 214.826 123.716C216.808 110.467 216.949 107.103 217.132 68.6473C217.327 27.7489 217.504 30.316 214.263 27.0756C211.136 23.9483 212.986 24.0888 174.898 24.0888C138.111 24.0888 139.399 24.0138 136.36 26.3321C135.583 26.9239 134.463 28.2336 133.87 29.2423L132.792 31.0767L132.684 65.9221L132.575 100.767L133.438 102.773C134.451 105.128 137.231 107.752 139.331 108.335C140.192 108.574 147.366 108.738 157.05 108.739L173.321 108.742L173.321 111.252C173.321 116.969 171.691 126.671 169.651 133.099C166.939 141.645 162.8 148.536 156.805 154.486C151.913 159.342 146.25 163.197 138.288 167.093C132.466 169.941 131.593 170.648 129.993 173.807C129.57 174.643 129.287 176.134 129.273 177.608C129.253 179.742 129.519 180.608 131.486 184.817C138.97 200.834 139.582 201.85 142.708 203.445C145 204.614 148.292 204.774 150.761 203.836ZM32.6812 204.129C34.8942 203.72 45.2997 198.628 50.9343 195.197C68.0286 184.786 81.3722 170.838 89.1806 155.218C94.8903 143.797 97.7185 132.259 99.7103 112.259C100.24 106.945 100.391 98.9981 100.534 69.0498C100.732 27.7025 100.911 30.3208 97.6658 27.0756C94.5389 23.9487 96.3865 24.0888 58.3215 24.0888C21.2192 24.0888 22.5197 24.0081 19.5026 26.495C18.7111 27.1475 17.5983 28.6153 17.0293 29.7569L15.9951 31.8325L16.0038 66.3936C16.0126 100.3 16.0282 100.989 16.826 102.752C17.7608 104.818 19.1867 106.426 21.186 107.671C22.5513 108.522 22.9801 108.547 39.7481 108.742L56.9127 108.941L56.7909 112.136C56.4759 120.387 54.4841 130.206 51.7177 137.143C48.8735 144.275 45.467 149.478 40.2976 154.584C35.593 159.231 30.7897 162.542 23.25 166.336C16.0222 169.972 14.0021 171.648 13.1839 174.686C12.2156 178.282 12.7256 180.093 17.4913 190C20.151 195.529 22.5113 199.882 23.4217 200.938C25.7345 203.62 29.119 204.787 32.6812 204.129Z" fill="#3E66DF" fill-opacity="0.2"/>
</g>
</svg>
