<svg width="48" height="48" viewBox="0 0 48 48" fill="none" xmlns="http://www.w3.org/2000/svg">
<g id="entypo:code" clip-path="url(#clip0_573_971)">
<path id="Vector" d="M13.7254 35.4C13.138 35.4008 12.5707 35.1855 12.1318 34.7952L-0.012207 24L12.8062 12.6048C13.284 12.196 13.9031 11.9911 14.5304 12.0341C15.1577 12.0771 15.7431 12.3645 16.1606 12.8346C16.5782 13.3047 16.7946 13.9199 16.7634 14.5479C16.7321 15.1759 16.4556 15.7665 15.9934 16.1928L7.21179 24L15.319 31.2048C15.6832 31.5279 15.9405 31.9543 16.0567 32.4271C16.173 32.9 16.1426 33.397 15.9697 33.8522C15.7968 34.3074 15.4895 34.6992 15.0886 34.9757C14.6878 35.2521 14.2123 35.4001 13.7254 35.4ZM35.1934 35.3952L48.0118 24L35.8678 13.2048C35.392 12.7821 34.7678 12.5658 34.1325 12.6034C33.4972 12.6409 32.9028 12.9294 32.4802 13.4052C32.0575 13.881 31.8412 14.5052 31.8788 15.1405C31.9164 15.7758 32.2048 16.3701 32.6806 16.7928L40.7878 24L32.0062 31.8048C31.5301 32.2274 31.2414 32.8219 31.2035 33.4574C31.1657 34.0929 31.3819 34.7174 31.8046 35.1936C32.2272 35.6697 32.8217 35.9584 33.4572 35.9962C34.0928 36.034 34.7173 35.8178 35.1934 35.3952ZM23.9662 38.796L28.7662 9.99596C28.8276 9.6812 28.8252 9.35734 28.7594 9.0435C28.6935 8.72966 28.5654 8.43221 28.3826 8.16871C28.1998 7.90521 27.9661 7.68102 27.6952 7.50937C27.4243 7.33772 27.1218 7.22209 26.8055 7.16932C26.4892 7.11654 26.1655 7.1277 25.8536 7.20212C25.5417 7.27654 25.2478 7.41272 24.9894 7.60261C24.731 7.7925 24.5133 8.03225 24.3491 8.30771C24.1849 8.58316 24.0775 8.88873 24.0334 9.20636L19.2334 38.0064C19.172 38.3211 19.1743 38.645 19.2402 38.9588C19.3061 39.2727 19.4342 39.5701 19.617 39.8336C19.7998 40.0971 20.0335 40.3213 20.3044 40.493C20.5752 40.6646 20.8778 40.7802 21.1941 40.833C21.5104 40.8858 21.8341 40.8746 22.146 40.8002C22.4579 40.7258 22.7518 40.5896 23.0102 40.3997C23.2686 40.2098 23.4863 39.9701 23.6505 39.6946C23.8147 39.4192 23.9221 39.1136 23.9662 38.796Z" fill="#2555BB"/>
</g>
<defs>
<clipPath id="clip0_573_971">
<rect width="48" height="48" fill="white"/>
</clipPath>
</defs>
</svg>
